<mxfile host="app.diagrams.net" modified="2023-10-26T07:28:43.512Z" agent="Mozilla/5.0 (Windows NT 10.0; Win64; x64) AppleWebKit/537.36 (KHTML, like Gecko) Chrome/104.0.0.0 Safari/537.36" version="22.0.6" etag="f7978-OnHTtVm0gZFLSi" type="github">
  <diagram name="第 1 页" id="UNW0oEQCLwWRAKxEsIeE">
    <mxGraphModel>
      <root>
        <mxCell id="0" />
        <mxCell id="1" parent="0" />
      </root>
    </mxGraphModel>
  </diagram>
</mxfile>
